<?xml version="1.0" standalone="no"?>
<!DOCTYPE svg PUBLIC "-//W3C//DTD SVG 20010904//EN"
 "http://www.w3.org/TR/2001/REC-SVG-20010904/DTD/svg10.dtd">
<svg version="1.0" xmlns="http://www.w3.org/2000/svg"
 width="300.000000pt" height="300.000000pt" viewBox="0 0 300.000000 300.000000"
 preserveAspectRatio="xMidYMid meet">
<metadata>
Created by potrace 1.14, written by Peter Selinger 2001-2017
</metadata>
<g transform="translate(0.000000,300.000000) scale(0.100000,-0.100000)"
fill="#000000" stroke="none">
<path d="M730 2448 c-8 -93 -30 -450 -30 -490 0 -85 23 -78 44 12 22 99 59
165 135 240 161 160 331 199 870 200 163 0 202 -3 198 -13 -3 -7 -296 -451
-651 -986 -355 -535 -646 -978 -646 -985 0 -11 175 -15 881 -20 485 -5 884 -4
888 1 5 4 16 121 25 258 9 138 20 280 23 318 5 63 5 67 -14 67 -16 0 -22 -9
-28 -37 -22 -119 -116 -285 -209 -370 -98 -90 -215 -139 -403 -169 -100 -16
-773 -34 -773 -20 0 3 165 255 367 558 715 1078 923 1398 923 1422 0 15 -67
16 -800 16 -440 0 -800 -1 -800 -2z"/>
</g>
</svg>
